<?xml version="1.0" encoding="utf-8"?>
<!-- Generator: Adobe Illustrator 26.0.0, SVG Export Plug-In . SVG Version: 6.00 Build 0)  -->
<svg version="1.1" id="Layer_1" xmlns="http://www.w3.org/2000/svg" xmlns:xlink="http://www.w3.org/1999/xlink" x="0px" y="0px"
	 viewBox="0 0 157 56" style="enable-background:new 0 0 157 56;" xml:space="preserve">
<style type="text/css">
	.st0{display:none;fill:#090E34;}
	.st1{display:none;fill:#3056D3;}
	.st2{display:none;fill-rule:evenodd;clip-rule:evenodd;fill:#FFFFFF;}
</style>
<path class="st0" d="M60.7,14.9c2.3,0,4.3,0.4,6,1.1c1.7,0.8,3,1.8,4,3.3s1.4,3.1,1.4,5.1c0,1.9-0.5,3.6-1.4,5.1
	c-0.9,1.4-2.2,2.5-4,3.3c-1.7,0.8-3.7,1.1-6,1.1h-6v7.7h-4.9V14.9H60.7z M60.5,29.6c2.2,0,3.8-0.5,4.9-1.4s1.7-2.2,1.7-3.9
	s-0.6-3-1.7-3.9s-2.7-1.4-4.9-1.4h-5.8v10.6H60.5z M79.5,14.9h4.9v22.4h13.9v4.2H79.5V14.9z M122.1,35.3h-13.3l-2.6,6.2h-5.1
	l12-26.6h4.9l12,26.6h-5.2L122.1,35.3z M120.5,31.5l-5-11.6l-5,11.6H120.5z M145.7,32.1v9.4h-4.9v-9.3l-10.4-17.3h5.3l7.8,13l7.9-13
	h4.9L145.7,32.1z"/>
<path class="st1" d="M20,47.5c11,0,20-9,20-20s-9-20-20-20s-20,9-20,20S9,47.5,20,47.5z"/>
<path class="st2" d="M12.6,31.2c-2.1-3.5-1.8-6.7,1.1-9.5c4.2-4.2,8-1.6,10.6-3.2c1.8-1.1,2.5-2.8,2.1-5.3c2.1,3.5,1.8,6.7-1.1,9.5
	c-4.2,4.2-8,1.6-10.6,3.2C12.9,26.9,12.2,28.7,12.6,31.2z M13.6,42.8c-2.1-3.5-1.8-6.7,1.1-9.5c4.2-4.2,8-1.6,10.6-3.2
	c1.8-1.1,2.5-2.8,2.1-5.3c2.1,3.5,1.8,6.7-1.1,9.5c-4.2,4.2-8,1.6-10.6,3.2C14,38.6,13.3,40.4,13.6,42.8z"/>
<g>
	<g>
		<path d="M27.5,16.1v5.6h-3.7V4.8h5.8c2.1,0,3.7,0.5,4.7,1.4s1.6,2.3,1.6,4.1c0,1.7-0.6,3.1-1.8,4.2s-2.8,1.6-4.8,1.6H27.5z
			 M27.5,7.6v5.6H29c1,0,1.8-0.2,2.3-0.7s0.8-1.2,0.8-2.1c0-0.9-0.3-1.6-0.8-2.1S30,7.6,29,7.6H27.5z"/>
		<path d="M48.6,21.6h-9.9V4.8h3.7v13.8h6.3V21.6z"/>
		<path d="M58.2,21.9c-2.4,0-4.4-0.8-5.9-2.3S50,16,50,13.4c0-2.7,0.8-4.8,2.3-6.4s3.6-2.5,6.1-2.5c2.4,0,4.3,0.8,5.8,2.4
			s2.2,3.6,2.2,6.2c0,2.6-0.8,4.8-2.3,6.4S60.6,21.9,58.2,21.9z M58.2,18.7c1.4,0,2.4-0.5,3.2-1.4s1.2-2.3,1.2-4
			c0-1.8-0.4-3.2-1.1-4.1s-1.8-1.5-3.1-1.5c-1.4,0-2.4,0.5-3.2,1.5s-1.2,2.4-1.2,4c0,1.7,0.4,3,1.2,4S57,18.7,58.2,18.7z"/>
		<path d="M83.4,4.8l-5.8,16.8h-4.1L67.7,4.8h3.9l3.6,11.8c0.1,0.3,0.2,0.6,0.2,0.9s0.1,0.5,0.1,0.8h0.1c0-0.3,0.1-0.5,0.1-0.8
			s0.1-0.6,0.2-0.9l3.6-11.8H83.4z"/>
		<path d="M85.7,21.6V4.8h5.9c3,0,5.2,0.7,6.7,2s2.2,3.4,2.2,6.1c0,2.6-0.8,4.7-2.4,6.3s-3.8,2.3-6.5,2.3H85.7z M89.4,7.8v10.8h1.9
			c1.7,0,3-0.5,3.9-1.5s1.4-2.4,1.4-4.1c0-1.6-0.5-2.9-1.4-3.9s-2.3-1.4-4-1.4H89.4z"/>
		<path d="M107.2,21.6h-3.7V4.8h3.7V21.6z"/>
		<path d="M125.2,4.8l-5.8,16.8h-4.1l-5.7-16.8h3.9l3.6,11.8c0.1,0.3,0.2,0.6,0.2,0.9s0.1,0.5,0.1,0.8h0.1c0-0.3,0.1-0.5,0.1-0.8
			s0.1-0.6,0.2-0.9l3.6-11.8H125.2z"/>
		<path d="M50.1,50.7c-0.6,0-1.1-0.2-1.5-0.6S48,49.3,48,48.7c0-0.6,0.2-1.1,0.6-1.4s0.9-0.6,1.5-0.6c0.6,0,1.1,0.2,1.5,0.6
			s0.6,0.8,0.6,1.4c0,0.6-0.2,1-0.6,1.4S50.7,50.7,50.1,50.7z"/>
		<path d="M55.5,50.4V33.6h5.9c3,0,5.2,0.7,6.7,2s2.2,3.4,2.2,6.1c0,2.6-0.8,4.7-2.4,6.3s-3.8,2.3-6.5,2.3H55.5z M59.1,36.6v10.8H61
			c1.7,0,3-0.5,3.9-1.5s1.4-2.4,1.4-4.1c0-1.6-0.5-2.9-1.4-3.9s-2.3-1.4-4-1.4H59.1z"/>
		<path d="M83.3,50.4h-10V33.6H83v3h-6v3.9h5.5v3H77v4h6.3V50.4z"/>
		<path d="M100.2,33.6l-5.8,16.8h-4.1l-5.7-16.8h3.9L92,45.4c0.1,0.3,0.2,0.6,0.2,0.9s0.1,0.5,0.1,0.8h0.1c0-0.3,0.1-0.5,0.1-0.8
			s0.1-0.6,0.2-0.9l3.6-11.8H100.2z"/>
	</g>
</g>
</svg>
